<svg width="40" height="40" viewBox="0 0 40 40" fill="none" xmlns="http://www.w3.org/2000/svg">
<path d="M6.06118 6.06113C9.40865 2.71366 14.836 2.71366 18.1834 6.06113L32.114 19.9917L19.9918 32.114L6.06118 18.1834C2.71371 14.8359 2.71371 9.40861 6.06118 6.06113Z" fill="#FFB0B2"/>
<path d="M33.9389 6.06118C37.2863 9.40865 37.2863 14.836 33.9389 18.1834L20.0083 32.114L7.886 19.9918L21.8166 6.06118C25.1641 2.71371 30.5914 2.71371 33.9389 6.06118Z" fill="#FFB0B2"/>
<path fill-rule="evenodd" clip-rule="evenodd" d="M6.06114 22.0737C2.71367 25.4211 2.71367 30.8485 6.06114 34.1959C9.40861 37.5434 14.8359 37.5434 18.1834 34.1959L20 32.3793L21.8166 34.1959C25.164 37.5434 30.5914 37.5434 33.9388 34.1959C37.2863 30.8485 37.2863 25.4211 33.9388 22.0737L20.0082 8.14307L20 8.15133L19.9917 8.14307L6.06114 22.0737ZM20 8.15133L7.88598 20.2653L20 32.3793L32.114 20.2653L20 8.15133Z" fill="#C28AEE"/>
<path fill-rule="evenodd" clip-rule="evenodd" d="M20 8.15137L32.114 20.2654L20 32.3794L7.88599 20.2654L20 8.15137Z" fill="#D57E9B"/>
</svg>
