<?xml version="1.0" encoding="utf-8"?>
<!-- Generator: Adobe Illustrator 25.2.3, SVG Export Plug-In . SVG Version: 6.00 Build 0)  -->
<svg version="1.1" id="Layer_1" xmlns="http://www.w3.org/2000/svg" xmlns:xlink="http://www.w3.org/1999/xlink" x="0px" y="0px"
	 viewBox="0 0 16 19" style="enable-background:new 0 0 16 19;" xml:space="preserve">
<style type="text/css">
	.st0{fill:none;stroke:#323232;stroke-width:1.2;}
	.st1{fill-rule:evenodd;clip-rule:evenodd;fill:#323232;}
	.st2{fill:#D81718;}
</style>
<g>
	<path class="st0" d="M8.9,2.1L8,2c0,0,0,0,0,0L7.1,2.1C3.9,2.6,1.5,5.6,1.5,9v4.6l0,0.1l-0.8,1.9c0,0.1,0,0.2,0,0.3
		c0.1,0.1,0.1,0.1,0.2,0.1l14.2,0c0,0-0.1,0-0.1,0l0.1,0h0.1c0,0,0,0-0.1,0h0c0.1,0,0.3-0.1,0.3-0.4c0-0.1,0-0.2-0.1-0.2l-0.8-1.9
		V9.1C14.5,5.6,12.1,2.6,8.9,2.1L8.9,2.1z"/>
	<path class="st1" d="M5.6,16h4.9c0.3,1.4-0.6,2.7-2,2.9c-1.4,0.3-2.7-0.6-2.9-2C5.5,16.7,5.5,16.3,5.6,16z M6.6,2
		C6.3,1.2,6.7,0.4,7.5,0.1S9.1,0.2,9.4,1c0.1,0.3,0.1,0.7,0,1H6.6z"/>
</g>
<circle class="st2" cx="13" cy="4.1" r="2.9"/>
</svg>
